<svg width="17" height="18" viewBox="0 0 17 18" fill="none" xmlns="http://www.w3.org/2000/svg">
<path d="M3.80535 17.5H0.28081V6.14997H3.80535V17.5ZM2.04118 4.60172C0.91415 4.60172 0 3.66822 0 2.54118C8.06683e-09 1.99983 0.215053 1.48065 0.597849 1.09785C0.980645 0.715053 1.49983 0.5 2.04118 0.5C2.58254 0.5 3.10172 0.715053 3.48452 1.09785C3.86732 1.48065 4.08237 1.99983 4.08237 2.54118C4.08237 3.66822 3.16784 4.60172 2.04118 4.60172ZM16.9966 17.5H13.4796V11.9749C13.4796 10.6581 13.4531 8.96945 11.6472 8.96945C9.81468 8.96945 9.53387 10.4001 9.53387 11.88V17.5H6.01313V6.14997H9.39347V7.69822H9.4428C9.91335 6.80646 11.0628 5.86537 12.7776 5.86537C16.3447 5.86537 17.0004 8.2143 17.0004 11.2653V17.5H16.9966Z" fill="black"/>
</svg>
