<svg width="18" height="18" viewBox="0 0 18 18" fill="none" xmlns="http://www.w3.org/2000/svg">
<path d="M9.00037 0C7.22034 0 5.48028 0.527841 4.00024 1.51677C2.5202 2.50571 1.36664 3.91131 0.685454 5.55585C0.00426577 7.20038 -0.173964 9.00998 0.173303 10.7558C0.52057 12.5016 1.37774 14.1053 2.63641 15.364C3.89508 16.6226 5.49873 17.4798 7.24456 17.8271C8.99038 18.1743 10.8 17.9961 12.4445 17.3149C14.0891 16.6337 15.4947 15.4802 16.4836 14.0001C17.4725 12.5201 18.0004 10.78 18.0004 9C18.0004 7.8181 17.7676 6.64778 17.3153 5.55585C16.863 4.46392 16.2001 3.47177 15.3643 2.63604C14.5286 1.80031 13.5364 1.13738 12.4445 0.685084C11.3526 0.232792 10.1823 0 9.00037 0ZM9.00037 1.8C10.8496 1.79926 12.6272 2.51544 13.9594 3.798C12.5842 4.60458 11.127 5.26229 9.61237 5.76C8.85861 4.46114 7.99442 3.22959 7.02937 2.079C7.67013 1.8945 8.33357 1.80059 9.00037 1.8ZM5.30137 2.835C6.24428 3.91365 7.09054 5.07312 7.83037 6.3C6.06376 6.73866 4.25062 6.96228 2.43037 6.966H2.10637C2.61685 5.23767 3.75691 3.76362 5.30137 2.835ZM3.60037 13.779C2.42925 12.4639 1.78784 10.7609 1.80037 9C1.80037 8.91 1.80037 8.82 1.80037 8.739H2.41237C4.54301 8.71995 6.66162 8.41729 8.71237 7.839C9.00037 8.388 9.27037 8.955 9.53137 9.54C8.12871 10.0345 6.82238 10.7683 5.67037 11.709L5.40037 11.925C4.75877 12.5012 4.15737 13.1207 3.60037 13.779ZM9.00037 16.2C7.56585 16.2032 6.16375 15.7734 4.97737 14.967C5.41553 14.4644 5.88442 13.9895 6.38137 13.545L6.66937 13.302C7.73422 12.4064 8.95444 11.7139 10.2694 11.259C10.8106 12.7224 11.232 14.2273 11.5294 15.759C10.7192 16.0548 9.86285 16.2041 9.00037 16.2ZM13.1674 14.859C12.8729 13.4969 12.4881 12.1559 12.0154 10.845H12.3214C12.3568 10.8362 12.3939 10.8362 12.4294 10.845H12.5284H12.6184H13.0504C13.9975 10.8477 14.9375 11.0089 15.8314 11.322C15.3403 12.7533 14.4075 13.9918 13.1674 14.859ZM13.0504 9C12.8614 9 12.6724 9 12.4924 9C12.3758 8.98531 12.2579 8.98531 12.1414 9C11.8968 9.01502 11.6533 9.04508 11.4124 9.09H11.3224C11.0614 8.487 10.7914 7.902 10.4944 7.29C12.1059 6.73655 13.6537 6.01244 15.1114 5.13C15.8345 6.29043 16.2122 7.63276 16.2004 9C16.2004 9.153 16.2004 9.306 16.2004 9.459C15.1804 9.14419 14.1178 8.98936 13.0504 9Z" fill="black"/>
</svg>
