<svg width="22" height="14" viewBox="0 0 22 14" fill="none" xmlns="http://www.w3.org/2000/svg">
<path d="M19.8608 0.761604H14.2884V2.31134H19.8828L19.8608 0.761604ZM18.6848 11.4229C18.2621 11.703 17.7628 11.8451 17.256 11.8296C16.9204 11.8646 16.5813 11.8299 16.2598 11.7278C15.9383 11.6257 15.6413 11.4583 15.3875 11.2361C14.9182 10.704 14.6738 10.0104 14.706 9.30165H21.9821C22.0346 8.56366 21.9715 7.822 21.7953 7.10344C21.6248 6.41982 21.3264 5.77465 20.916 5.20199C20.5028 4.6465 19.9693 4.19182 19.3552 3.87207C18.6721 3.53524 17.9186 3.36571 17.157 3.37747C16.4408 3.37223 15.7307 3.51051 15.0687 3.78414C14.4626 4.03968 13.9133 4.41331 13.4531 4.88325C12.9941 5.36259 12.6386 5.93126 12.4089 6.55389C12.1624 7.22605 12.0395 7.93727 12.0462 8.65318C12.0349 9.37926 12.154 10.1015 12.3979 10.7854C12.6051 11.4048 12.9339 11.9766 13.3651 12.4671C13.8113 12.9487 14.3596 13.3242 14.9698 13.5662C15.6503 13.8254 16.374 13.9523 17.1021 13.9399C18.1236 13.9717 19.1322 13.7043 20.0037 13.1705C20.884 12.545 21.5178 11.6312 21.7953 10.5876H19.3662C19.2362 10.9329 18.9969 11.2262 18.6848 11.4229ZM14.9149 6.89461C15.0004 6.62059 15.1424 6.36752 15.3317 6.15171C15.521 5.9359 15.7534 5.76215 16.014 5.64163C16.359 5.48631 16.7348 5.41116 17.1131 5.42181C17.3863 5.39847 17.6614 5.43452 17.9194 5.52748C18.1774 5.62044 18.4123 5.76812 18.6079 5.96037C18.9813 6.41753 19.221 6.96912 19.3003 7.55407H14.739C14.7568 7.33072 14.7973 7.10975 14.8599 6.89461H14.9149ZM9.10059 6.36704C9.66 6.1341 10.1461 5.75435 10.5074 5.26794C10.8396 4.75136 11.0046 4.14502 10.9801 3.53135C11.0016 2.97173 10.8925 2.41478 10.6613 1.90467C10.4671 1.46274 10.1554 1.08257 9.76006 0.805568C9.34092 0.517573 8.86495 0.32269 8.36419 0.234033C7.77158 0.109739 7.16712 0.0507682 6.56166 0.0581764H0V13.8849H6.70454C7.3164 13.8854 7.92582 13.8078 8.51807 13.6541C9.07943 13.5089 9.61126 13.2671 10.0898 12.9397C10.5533 12.6184 10.9308 12.1882 11.1889 11.6867C11.4746 11.1259 11.6144 10.5023 11.5956 9.87319C11.6164 9.09363 11.3977 8.32643 10.9691 7.67498C10.5081 7.01983 9.82438 6.5549 9.04564 6.36704H9.10059ZM3.04452 2.42125H5.89121C6.15273 2.42093 6.41381 2.44299 6.67157 2.4872C6.90892 2.52237 7.13686 2.60458 7.34202 2.729C7.54025 2.84113 7.70086 3.00939 7.80365 3.21261C7.93095 3.4563 7.99161 3.72929 7.97951 4.00396C7.99998 4.24053 7.96381 4.47858 7.87398 4.69838C7.78414 4.91819 7.64324 5.11343 7.46293 5.26794C7.06958 5.53835 6.5989 5.67338 6.12202 5.65262H3.04452V2.42125ZM8.36419 10.5986C8.25127 10.8226 8.08051 11.0123 7.8696 11.1481C7.65011 11.2847 7.40827 11.3814 7.15518 11.4339C6.87387 11.4969 6.58611 11.5264 6.29787 11.5218H3.00056V7.72993H6.29787C6.86371 7.70515 7.4225 7.86316 7.89158 8.18057C8.1035 8.37074 8.26766 8.60815 8.37077 8.87357C8.47388 9.13899 8.51305 9.42495 8.4851 9.70832C8.51481 10.0104 8.4734 10.3153 8.36419 10.5986Z" fill="black"/>
</svg>
